<svg width="290" height="71" viewBox="0 0 290 71" fill="none" xmlns="http://www.w3.org/2000/svg">
<rect width="290" height="71" rx="10" fill="#F9FCFD"/>
<path fill-rule="evenodd" clip-rule="evenodd" d="M270 10C275.523 10 280 14.4772 280 20V51C280 56.5228 275.523 61 270 61H20C14.4771 61 10 56.5228 10 51V42.9989C10.0484 42.9996 10.097 43 10.1456 43C14.7812 43 18.5391 39.6421 18.5391 35.5C18.5391 31.3579 14.7812 28 10.1456 28C10.097 28 10.0484 28.0004 10 28.0011V20C10 14.4772 14.4771 10 20 10H270Z" fill="white"/>
</svg>
