<svg width="148" height="79" viewBox="0 0 148 79" fill="none" xmlns="http://www.w3.org/2000/svg">
<path d="M75.2447 38.268L41.7473 4.66679C41.069 3.98639 39.9693 3.98639 39.291 4.66679L5.7936 38.268C5.1153 38.9485 5.1153 40.0516 5.7936 40.732L39.291 74.3333C39.9693 75.0137 41.069 75.0137 41.7473 74.3333L75.2447 40.732C75.923 40.0516 75.923 38.9485 75.2447 38.268Z" fill="url(#paint0_linear_1_18)"/>
<path d="M53.1351 62.2235C48.9253 64.4185 49.8704 64.3338 44.7238 64.7705C39.5768 65.2069 34.3986 64.3247 29.7746 62.2235C25.1505 60.1223 21.2653 56.886 18.5584 52.8809C15.8516 48.8758 14.4313 44.2616 14.4581 39.5602C14.4849 34.859 15.9578 30.2584 18.7101 26.279C21.4624 22.2995 25.3843 19.1001 30.032 17.0426C34.6798 14.9852 39.8679 14.1518 45.0093 14.6369C50.1507 15.1219 51.4632 15.4609 55.5477 18.3422L53.1351 26.8114C50.4919 24.9469 47.328 23.7924 44.0011 23.4786C40.6741 23.1647 37.3168 23.704 34.3093 25.0353C31.3017 26.3667 28.7639 28.437 26.9829 31.0121C25.2019 33.5872 24.2488 36.5642 24.2314 39.6065C24.2141 42.6485 25.1332 45.6343 26.8848 48.2261C28.6363 50.8179 31.1505 52.9118 34.1427 54.2716C37.1348 55.6311 40.4856 56.2019 43.816 55.9195C47.1467 55.637 50.3234 54.5124 52.9877 52.6731L53.1351 62.2235Z" fill="#D0D0D0"/>
<path d="M73.0265 16.1323C72.2028 16.1323 71.5652 16.4438 71.1132 17.067C70.6616 17.6854 70.4356 18.5493 70.4356 19.6587C70.4356 21.9672 71.2992 23.1215 73.0265 23.1215C73.7509 23.1215 74.6286 22.9397 75.6593 22.5762V24.4173C74.8124 24.7714 73.8666 24.9484 72.8214 24.9484C71.3201 24.9484 70.1719 24.4929 69.3767 23.5817C68.5812 22.6659 68.1836 21.3535 68.1836 19.6446C68.1836 18.5682 68.3788 17.6264 68.7695 16.8191C69.1602 16.0072 69.7203 15.3864 70.4496 14.9568C71.1839 14.5225 72.0426 14.3053 73.0265 14.3053C74.0286 14.3053 75.0357 14.5484 76.0478 15.0347L75.3416 16.8191C74.9558 16.635 74.5678 16.4745 74.177 16.3376C73.7863 16.2007 73.4028 16.1323 73.0265 16.1323ZM84.2224 16.89V18.5116H81.6387V24.8068H79.4856V18.5116H76.8947V16.89H84.2224ZM90.0324 24.9484C89.1052 24.9484 88.3782 24.6109 87.8509 23.9358H87.7379C87.8132 24.5967 87.8509 24.9791 87.8509 25.083V28.2908H85.6978V16.89H87.4487L87.7523 17.9167H87.8509C88.3546 17.1331 89.1007 16.7412 90.0887 16.7412C91.0205 16.7412 91.7502 17.1024 92.2772 17.8247C92.8045 18.547 93.0678 19.5501 93.0678 20.8342C93.0678 21.6792 92.943 22.4133 92.6938 23.0365C92.4491 23.6596 92.0983 24.1341 91.6418 24.4598C91.1852 24.7855 90.6488 24.9484 90.0324 24.9484ZM89.3971 18.4691C88.8652 18.4691 88.4771 18.6343 88.2321 18.9648C87.9874 19.2905 87.8604 19.831 87.8509 20.5864V20.8201C87.8509 21.6698 87.9756 22.2788 88.2252 22.647C88.4794 23.0153 88.8793 23.1994 89.4252 23.1994C90.3901 23.1994 90.8725 22.4015 90.8725 20.8059C90.8725 20.027 90.7523 19.4439 90.5122 19.0568C90.2771 18.665 89.9054 18.4691 89.3971 18.4691ZM96.5623 20.8342C96.5623 21.6179 96.6894 22.2103 96.9435 22.6116C97.2023 23.0129 97.6211 23.2135 98.2002 23.2135C98.7743 23.2135 99.186 23.0153 99.4356 22.6187C99.6897 22.2174 99.8168 21.6226 99.8168 20.8342C99.8168 20.0505 99.6897 19.4628 99.4356 19.071C99.1814 18.6792 98.7648 18.4833 98.1858 18.4833C97.6116 18.4833 97.1977 18.6792 96.9435 19.071C96.6894 19.4581 96.5623 20.0459 96.5623 20.8342ZM102.019 20.8342C102.019 22.123 101.68 23.1309 101.003 23.8579C100.325 24.5849 99.3812 24.9484 98.1717 24.9484C97.4142 24.9484 96.7457 24.7832 96.167 24.4528C95.588 24.1176 95.1432 23.6384 94.8327 23.0153C94.5223 22.3921 94.3667 21.6651 94.3667 20.8342C94.3667 19.5407 94.7034 18.5352 95.3764 17.8176C96.0495 17.1 96.9953 16.7412 98.2143 16.7412C98.9718 16.7412 99.6403 16.9065 100.219 17.2369C100.798 17.5674 101.243 18.0418 101.553 18.6603C101.864 19.2787 102.019 20.0033 102.019 20.8342ZM105.881 16.89V20.0199C105.881 20.3503 105.827 21.1576 105.718 22.4416L109.361 16.89H111.952V24.8068H109.869V21.6486C109.869 21.0868 109.916 20.2937 110.011 19.2692L106.382 24.8068H103.798V16.89H105.881ZM120.748 16.89V18.5116H118.164V24.8068H116.011V18.5116H113.42V16.89H120.748ZM125.492 18.2779C125.035 18.2779 124.677 18.4242 124.419 18.7169C124.16 19.0049 124.012 19.4156 123.974 19.9491H126.995C126.986 19.4156 126.847 19.0049 126.579 18.7169C126.31 18.4242 125.948 18.2779 125.492 18.2779ZM125.795 24.9484C124.524 24.9484 123.531 24.5967 122.816 23.8933C122.101 23.1899 121.743 22.1938 121.743 20.905C121.743 19.5785 122.072 18.554 122.731 17.8318C123.395 17.1048 124.31 16.7412 125.477 16.7412C126.593 16.7412 127.461 17.0599 128.083 17.6972C128.703 18.3345 129.014 19.215 129.014 20.3385V21.3866H123.924C123.948 22.0003 124.129 22.4794 124.468 22.8241C124.807 23.1687 125.282 23.341 125.894 23.341C126.369 23.341 126.819 23.2914 127.242 23.1923C127.666 23.0932 128.108 22.935 128.57 22.7178V24.389C128.193 24.5779 127.791 24.7171 127.362 24.8068C126.934 24.9012 126.412 24.9484 125.795 24.9484ZM137.832 24.8068H135.678V18.5116H133.695C133.544 20.2819 133.36 21.6037 133.144 22.4771C132.927 23.3457 132.638 23.9759 132.276 24.3678C131.918 24.7549 131.447 24.9484 130.864 24.9484C130.365 24.9484 129.956 24.8729 129.636 24.7218V22.994C129.866 23.0884 130.097 23.1356 130.327 23.1356C130.595 23.1356 130.819 22.9421 130.998 22.555C131.181 22.1679 131.344 21.5235 131.485 20.6218C131.631 19.7154 131.756 18.4714 131.859 16.89H137.832V24.8068ZM142.251 19.9491H143.768C144.982 19.9491 145.881 20.1426 146.465 20.5297C147.049 20.9168 147.34 21.5022 147.34 22.2859C147.34 23.9665 146.178 24.8068 143.853 24.8068H140.098V16.89H142.251V19.9491ZM145.187 22.3142C145.187 22.0073 145.065 21.7855 144.82 21.6486C144.575 21.5117 144.211 21.4432 143.726 21.4432H142.251V23.3127H143.754C144.71 23.3127 145.187 22.9798 145.187 22.3142Z" fill="#212D55"/>
<defs>
<linearGradient id="paint0_linear_1_18" x1="58.4962" y1="21.4675" x2="22.4311" y2="57.4211" gradientUnits="userSpaceOnUse">
<stop stop-color="#212D55"/>
<stop offset="0.491587" stop-color="#212D55" stop-opacity="0.38"/>
<stop offset="1" stop-color="#212D55"/>
</linearGradient>
</defs>
</svg>
