<svg width="193" height="94" viewBox="0 0 193 94" fill="none" xmlns="http://www.w3.org/2000/svg">
<path d="M97.667 45.5341L54.187 5.55281C53.3066 4.74322 51.8791 4.74322 50.9987 5.55281L7.51867 45.5341C6.63823 46.3436 6.63822 47.6563 7.51867 48.4659L50.9987 88.4471C51.8791 89.2567 53.3066 89.2567 54.187 88.4471L97.667 48.4659C98.5474 47.6563 98.5474 46.3436 97.667 45.5341Z" fill="url(#paint0_linear_1_353)"/>
<path d="M68.9683 74.0381C63.5039 76.6499 64.7306 76.5491 58.0503 77.0687C51.3695 77.5879 44.6481 76.5383 38.646 74.0381C32.644 71.5379 27.6009 67.6872 24.0874 62.9216C20.5739 58.156 18.7303 52.6657 18.7651 47.0717C18.7999 41.4778 20.7117 36.0037 24.2842 31.2687C27.8568 26.5336 32.9474 22.7267 38.9803 20.2786C45.0131 17.8305 51.7473 16.8389 58.4209 17.4161C65.0946 17.9932 66.7981 18.3965 72.0998 21.8249L68.9683 31.9022C65.5374 29.6837 61.4305 28.31 57.1122 27.9366C52.7938 27.5631 48.436 28.2047 44.5321 29.7889C40.6283 31.373 37.3342 33.8365 35.0224 36.9005C32.7106 39.9645 31.4735 43.5068 31.451 47.1267C31.4285 50.7464 32.6215 54.2991 34.895 57.383C37.1686 60.4669 40.432 62.9584 44.3159 64.5764C48.1998 66.194 52.5491 66.8732 56.872 66.5371C61.1952 66.201 65.3186 64.8629 68.7769 62.6744L68.9683 74.0381Z" fill="#D0D0D0"/>
<path d="M94.7873 19.1953C93.7181 19.1953 92.8904 19.5661 92.3037 20.3075C91.7175 21.0434 91.4242 22.0713 91.4242 23.3914C91.4242 26.1382 92.5452 27.5116 94.7873 27.5116C95.7275 27.5116 96.8668 27.2953 98.2047 26.8628V29.0535C97.1054 29.4748 95.8777 29.6855 94.5211 29.6855C92.5724 29.6855 91.0819 29.1434 90.0498 28.0593C89.0172 26.9695 88.5011 25.408 88.5011 23.3745C88.5011 22.0938 88.7544 20.9732 89.2616 20.0126C89.7688 19.0465 90.4957 18.3078 91.4424 17.7966C92.3956 17.2799 93.5102 17.0215 94.7873 17.0215C96.088 17.0215 97.3953 17.3108 98.7089 17.8893L97.7923 20.0126C97.2915 19.7936 96.7878 19.6026 96.2806 19.4397C95.7735 19.2768 95.2757 19.1953 94.7873 19.1953ZM109.32 20.0969V22.0264H105.966V29.5169H103.171V22.0264H99.8082V20.0969H109.32ZM116.861 29.6855C115.658 29.6855 114.714 29.2839 114.029 28.4806H113.883C113.981 29.267 114.029 29.722 114.029 29.8455V33.6624H111.235V20.0969H113.507L113.902 21.3186H114.029C114.683 20.3862 115.652 19.92 116.934 19.92C118.144 19.92 119.091 20.3497 119.775 21.2091C120.459 22.0686 120.801 23.2622 120.801 24.7901C120.801 25.7955 120.639 26.669 120.316 27.4105C119.998 28.1519 119.543 28.7165 118.95 29.1041C118.357 29.4917 117.661 29.6855 116.861 29.6855ZM116.036 21.9759C115.346 21.9759 114.842 22.1725 114.524 22.5657C114.207 22.9532 114.042 23.5964 114.029 24.4952V24.7732C114.029 25.7843 114.191 26.5089 114.515 26.9471C114.845 27.3852 115.364 27.6043 116.073 27.6043C117.325 27.6043 117.952 26.655 117.952 24.7564C117.952 23.8295 117.795 23.1358 117.484 22.6752C117.179 22.209 116.696 21.9759 116.036 21.9759ZM125.337 24.7901C125.337 25.7225 125.502 26.4275 125.832 26.9049C126.168 27.3824 126.711 27.6211 127.463 27.6211C128.208 27.6211 128.743 27.3852 129.067 26.9134C129.396 26.4359 129.561 25.7282 129.561 24.7901C129.561 23.8576 129.396 23.1583 129.067 22.692C128.737 22.2258 128.196 21.9927 127.444 21.9927C126.699 21.9927 126.162 22.2258 125.832 22.692C125.502 23.1526 125.337 23.852 125.337 24.7901ZM132.42 24.7901C132.42 26.3236 131.98 27.5228 131.101 28.3879C130.221 29.2529 128.996 29.6855 127.426 29.6855C126.443 29.6855 125.575 29.4889 124.824 29.0957C124.072 28.6968 123.495 28.1267 123.092 27.3852C122.689 26.6438 122.487 25.7787 122.487 24.7901C122.487 23.251 122.924 22.0545 123.798 21.2007C124.671 20.3469 125.899 19.92 127.481 19.92C128.465 19.92 129.332 20.1166 130.083 20.5097C130.835 20.903 131.412 21.4675 131.815 22.2033C132.218 22.9392 132.42 23.8014 132.42 24.7901ZM137.432 20.0969V23.8211C137.432 24.2143 137.362 25.1749 137.221 26.7027L141.95 20.0969H145.313V29.5169H142.609V25.759C142.609 25.0906 142.67 24.1469 142.793 22.928L138.083 29.5169H134.729V20.0969H137.432ZM156.73 20.0969V22.0264H153.376V29.5169H150.581V22.0264H147.218V20.0969H156.73ZM162.887 21.7484C162.295 21.7484 161.831 21.9225 161.495 22.2708C161.159 22.6134 160.966 23.1021 160.918 23.7369H164.839C164.827 23.1021 164.647 22.6134 164.298 22.2708C163.95 21.9225 163.48 21.7484 162.887 21.7484ZM163.282 29.6855C161.632 29.6855 160.343 29.267 159.415 28.43C158.486 27.593 158.022 26.4078 158.022 24.8743C158.022 23.2959 158.449 22.077 159.305 21.2175C160.166 20.3525 161.354 19.92 162.869 19.92C164.317 19.92 165.444 20.2991 166.251 21.0574C167.057 21.8158 167.46 22.8634 167.46 24.2003V25.4473H160.853C160.884 26.1775 161.119 26.7477 161.559 27.1577C161.999 27.5678 162.616 27.7728 163.41 27.7728C164.027 27.7728 164.61 27.7138 165.16 27.5958C165.71 27.4779 166.284 27.2897 166.883 27.0314V29.0198C166.394 29.2445 165.872 29.4102 165.316 29.5169C164.76 29.6293 164.082 29.6855 163.282 29.6855ZM178.905 29.5169H176.11V22.0264H173.535C173.34 24.1329 173.101 25.7057 172.82 26.7449C172.539 27.7784 172.163 28.5283 171.693 28.9945C171.229 29.4551 170.618 29.6855 169.861 29.6855C169.213 29.6855 168.682 29.5956 168.266 29.4158V27.3599C168.566 27.4723 168.865 27.5285 169.164 27.5285C169.512 27.5285 169.803 27.2981 170.035 26.8375C170.273 26.3769 170.484 25.6102 170.667 24.5373C170.856 23.4588 171.018 21.9786 171.152 20.0969H178.905V29.5169ZM184.641 23.7369H186.611C188.187 23.7369 189.354 23.9671 190.111 24.4278C190.869 24.8884 191.248 25.5849 191.248 26.5173C191.248 28.5171 189.738 29.5169 186.721 29.5169H181.846V20.0969H184.641V23.7369ZM188.453 26.5511C188.453 26.1859 188.294 25.9219 187.976 25.759C187.658 25.5961 187.185 25.5147 186.556 25.5147H184.641V27.7391H186.593C187.833 27.7391 188.453 27.3431 188.453 26.5511Z" fill="#212D55"/>
<path d="M109.104 38.0975C108.409 38.0975 107.862 38.3241 107.464 38.7773C107.065 39.2305 106.866 39.856 106.866 40.6538C106.866 41.4889 107.057 42.1206 107.439 42.5489C107.823 42.9773 108.379 43.1915 109.104 43.1915C109.419 43.1915 109.722 43.1636 110.016 43.1077C110.31 43.0487 110.615 42.9743 110.933 42.8842V43.8388C110.352 44.0405 109.694 44.1414 108.958 44.1414C107.874 44.1414 107.042 43.8403 106.461 43.2381C105.881 42.6328 105.59 41.7682 105.59 40.6445C105.59 39.9367 105.731 39.3174 106.011 38.7866C106.294 38.2558 106.702 37.8491 107.236 37.5667C107.77 37.2842 108.396 37.1429 109.115 37.1429C109.871 37.1429 110.57 37.2888 111.211 37.5806L110.776 38.5073C110.526 38.3986 110.261 38.3039 109.981 38.2232C109.704 38.1394 109.412 38.0975 109.104 38.0975ZM116.609 38.8984V39.7551H114.786V44.0483H113.591V39.7551H111.768V38.8984H116.609ZM120.529 44.1414C119.819 44.1414 119.269 43.9071 118.878 43.4383H118.807C118.854 43.8729 118.878 44.1368 118.878 44.2299V46.3393H117.688V38.8984H118.65C118.677 38.9946 118.732 39.2243 118.817 39.5875H118.878C119.249 39.066 119.806 38.8052 120.549 38.8052C121.248 38.8052 121.791 39.0381 122.18 39.5037C122.571 39.9693 122.767 40.6228 122.767 41.464C122.767 42.3053 122.568 42.9618 122.169 43.4337C121.774 43.9055 121.227 44.1414 120.529 44.1414ZM120.24 39.6993C119.768 39.6993 119.421 39.8265 119.202 40.0811C118.986 40.3356 118.878 40.7423 118.878 41.3011V41.464C118.878 42.0911 118.986 42.5459 119.202 42.8284C119.418 43.1077 119.771 43.2474 120.26 43.2474C120.672 43.2474 120.989 43.0922 121.212 42.7818C121.435 42.4713 121.546 42.029 121.546 41.4547C121.546 40.8773 121.435 40.4412 121.212 40.1463C120.993 39.8483 120.669 39.6993 120.24 39.6993ZM129.117 41.464C129.117 42.3053 128.882 42.9618 128.413 43.4337C127.944 43.9055 127.29 44.1414 126.453 44.1414C125.93 44.1414 125.468 44.0328 125.066 43.8155C124.664 43.5982 124.355 43.2862 124.139 42.8796C123.923 42.4729 123.815 42.0011 123.815 41.464C123.815 40.629 124.048 39.9771 124.514 39.5083C124.98 39.0396 125.636 38.8052 126.484 38.8052C127.294 38.8052 127.935 39.0458 128.408 39.527C128.88 40.005 129.117 40.6507 129.117 41.464ZM125.04 41.464C125.04 42.6529 125.518 43.2474 126.473 43.2474C127.419 43.2474 127.891 42.6529 127.891 41.464C127.891 40.2875 127.415 39.6993 126.464 39.6993C125.964 39.6993 125.601 39.8514 125.375 40.1556C125.152 40.4598 125.04 40.8959 125.04 41.464ZM131.629 38.8984V41.5385C131.629 41.8458 131.602 42.2975 131.548 42.8935L134.358 38.8984H135.811V44.0483H134.667V41.4547C134.667 41.3119 134.675 41.0806 134.692 40.7609C134.712 40.4412 134.729 40.2083 134.743 40.0625L131.942 44.0483H130.489V38.8984H131.629ZM140.723 43.0006L140.789 42.7771C140.927 42.3146 141.047 41.9591 141.149 41.7108L142.404 38.8984H143.989V44.0483H142.89V39.8902L142.8 40.1696C142.647 40.6694 142.519 41.0372 142.414 41.2731L141.189 44.0483H140.288L139.062 41.2545C138.894 40.8509 138.738 40.3962 138.596 39.8902V44.0483H137.507V38.8984H139.082L140.298 41.627C140.406 41.8785 140.548 42.3363 140.723 43.0006ZM153.246 40.2161C153.246 40.8246 152.86 41.1924 152.086 41.3197V41.3569C152.518 41.4035 152.849 41.5292 153.079 41.7341C153.309 41.939 153.423 42.2044 153.423 42.5303C153.423 43.0177 153.221 43.3933 152.816 43.6572C152.414 43.9179 151.828 44.0483 151.059 44.0483H148.385V38.8984H151.048C152.513 38.8984 153.246 39.3376 153.246 40.2161ZM152.203 42.4652C152.203 42.2168 152.098 42.0414 151.889 41.939C151.68 41.8335 151.366 41.7806 150.947 41.7806H149.575V43.2381H150.978C151.794 43.2381 152.203 42.9804 152.203 42.4652ZM152.056 40.3092C152.056 40.1043 151.968 39.9569 151.793 39.8669C151.621 39.7738 151.362 39.7272 151.018 39.7272H149.575V40.9658H150.841C151.239 40.9658 151.541 40.9192 151.747 40.8261C151.953 40.7299 152.056 40.5576 152.056 40.3092ZM161.951 44.0483H160.751V39.7551H159.206C159.112 40.8603 158.983 41.7232 158.821 42.3441C158.663 42.9649 158.453 43.4181 158.194 43.7037C157.937 43.9893 157.603 44.1321 157.191 44.1321C156.931 44.1321 156.713 44.098 156.538 44.0297V43.1729C156.662 43.2164 156.787 43.2381 156.912 43.2381C157.257 43.2381 157.526 42.8827 157.723 42.1718C157.922 41.4578 158.077 40.3667 158.188 38.8984H161.951V44.0483ZM171.137 41.464C171.137 42.3084 170.912 42.9665 170.463 43.4383C170.017 43.9071 169.395 44.1414 168.595 44.1414C167.859 44.1414 167.273 43.9428 166.837 43.5454C166.405 43.145 166.154 42.5722 166.083 41.8272H164.847V44.0483H163.658V38.8984H164.847V40.9658H166.093C166.178 40.2829 166.437 39.7521 166.873 39.3733C167.311 38.9946 167.892 38.8052 168.615 38.8052C169.391 38.8052 170.006 39.0458 170.458 39.527C170.911 40.005 171.137 40.6507 171.137 41.464ZM167.298 41.464C167.298 42.0507 167.399 42.4946 167.602 42.7957C167.808 43.0969 168.142 43.2474 168.605 43.2474C169.064 43.2474 169.397 43.0969 169.602 42.7957C169.808 42.4946 169.911 42.0507 169.911 41.464C169.911 40.8835 169.808 40.4443 169.602 40.1463C169.397 39.8483 169.064 39.6993 168.605 39.6993C168.142 39.6993 167.808 39.8483 167.602 40.1463C167.399 40.4443 167.298 40.8835 167.298 41.464ZM172.195 40.9565C172.195 39.8079 172.406 38.9248 172.828 38.307C173.253 37.6893 173.929 37.2919 174.854 37.115C175.552 36.9846 176.357 36.8574 177.269 36.7332L177.436 37.697C176.329 37.8523 175.519 37.9733 175.006 38.0602C174.475 38.1502 174.092 38.3505 173.856 38.6609C173.623 38.9713 173.488 39.4385 173.451 40.0625H173.527C173.719 39.8048 173.971 39.6062 174.281 39.4665C174.592 39.3237 174.924 39.2523 175.279 39.2523C175.968 39.2523 176.504 39.4525 176.889 39.8529C177.274 40.2534 177.466 40.8153 177.466 41.5385C177.466 42.3673 177.232 43.0084 176.763 43.4616C176.297 43.9148 175.65 44.1414 174.823 44.1414C174.003 44.1414 173.36 43.862 172.894 43.3033C172.428 42.7445 172.195 41.9622 172.195 40.9565ZM174.904 43.2474C175.788 43.2474 176.231 42.7135 176.231 41.6456C176.231 40.615 175.831 40.0997 175.031 40.0997C174.811 40.0997 174.599 40.1432 174.393 40.2301C174.187 40.317 173.996 40.4319 173.82 40.5747C173.649 40.7174 173.515 40.8649 173.42 41.017C173.42 41.7496 173.547 42.3053 173.8 42.684C174.053 43.0596 174.421 43.2474 174.904 43.2474ZM180.029 40.9565H181.163C181.946 40.9565 182.525 41.0806 182.9 41.329C183.275 41.5773 183.462 41.9498 183.462 42.4465C183.462 42.9773 183.266 43.3778 182.875 43.6479C182.486 43.9148 181.916 44.0483 181.163 44.0483H178.839V38.8984H180.029V40.9565ZM182.282 42.4745C182.282 42.2168 182.178 42.0368 181.968 41.9343C181.762 41.8319 181.465 41.7806 181.077 41.7806H180.029V43.2381H180.925C181.404 43.2381 181.751 43.176 181.963 43.0519C182.176 42.9277 182.282 42.7352 182.282 42.4745ZM185.538 44.0483H184.343V38.8984H185.538V44.0483ZM188.491 41.4174L186.612 38.8984H187.969L189.245 40.7004L190.531 38.8984H191.878L189.994 41.4174L191.974 44.0483H190.627L189.245 42.1206L187.867 44.0483H186.521L188.491 41.4174ZM118.361 52.0674V54.1349H121V52.0674H122.189V57.2174H121V54.9964H118.361V57.2174H117.171V52.0674H118.361ZM127.4 57.2174L127.162 56.5004H127.122C126.852 56.8137 126.58 57.028 126.307 57.1429C126.033 57.2546 125.682 57.3105 125.253 57.3105C124.703 57.3105 124.272 57.1738 123.962 56.9009C123.655 56.6275 123.501 56.2411 123.501 55.7415C123.501 55.2107 123.715 54.8102 124.144 54.54C124.573 54.2698 125.226 54.1227 126.104 54.0977L127.071 54.0695V53.7948C127.071 53.466 126.987 53.2208 126.818 53.0591C126.652 52.8948 126.394 52.8126 126.043 52.8126C125.756 52.8126 125.481 52.8512 125.218 52.9288C124.954 53.0065 124.701 53.0982 124.458 53.2035L124.073 52.4211C124.377 52.2754 124.709 52.1655 125.071 52.0905C125.432 52.0133 125.773 51.9743 126.094 51.9743C126.806 51.9743 127.343 52.1173 127.704 52.4025C128.069 52.6881 128.251 53.1368 128.251 53.7485V57.2174H127.4ZM125.628 56.4722C126.06 56.4722 126.406 56.3623 126.666 56.1416C126.929 55.9182 127.061 55.6062 127.061 55.2057V54.7589L126.342 54.7866C125.782 54.8052 125.373 54.8924 125.116 55.0477C124.863 55.1998 124.737 55.4341 124.737 55.7506C124.737 55.9804 124.811 56.1589 124.959 56.286C125.108 56.4104 125.331 56.4722 125.628 56.4722ZM134.809 52.0674V57.2174H133.614V52.9334H131.102V57.2174H129.912V52.0674H134.809ZM139.356 57.3105C138.647 57.3105 138.097 57.0762 137.705 56.6075H137.634C137.681 57.0421 137.705 57.3059 137.705 57.399V59.5084H136.515V52.0674H137.477C137.505 52.1636 137.56 52.3934 137.644 52.7567H137.705C138.076 52.2349 138.633 51.9743 139.376 51.9743C140.075 51.9743 140.619 52.2072 141.007 52.6727C141.398 53.1386 141.594 53.7921 141.594 54.6331C141.594 55.4745 141.395 56.1307 140.996 56.6025C140.602 57.0748 140.055 57.3105 139.356 57.3105ZM139.068 52.8684C138.595 52.8684 138.249 52.9956 138.029 53.2503C137.813 53.5046 137.705 53.9115 137.705 54.47V54.6331C137.705 55.2602 137.813 55.7148 138.029 55.9972C138.245 56.2769 138.598 56.4163 139.088 56.4163C139.5 56.4163 139.817 56.2615 140.039 55.9509C140.263 55.6403 140.374 55.198 140.374 54.624C140.374 54.0464 140.263 53.6104 140.039 53.3153C139.82 53.0174 139.496 52.8684 139.068 52.8684ZM146.481 57.2174L146.243 56.5004H146.202C145.932 56.8137 145.66 57.028 145.387 57.1429C145.114 57.2546 144.763 57.3105 144.334 57.3105C143.783 57.3105 143.353 57.1738 143.042 56.9009C142.735 56.6275 142.582 56.2411 142.582 55.7415C142.582 55.2107 142.796 54.8102 143.225 54.54C143.653 54.2698 144.307 54.1227 145.184 54.0977L146.152 54.0695V53.7948C146.152 53.466 146.067 53.2208 145.898 53.0591C145.733 52.8948 145.475 52.8126 145.124 52.8126C144.837 52.8126 144.562 52.8512 144.298 52.9288C144.035 53.0065 143.782 53.0982 143.539 53.2035L143.154 52.4211C143.458 52.2754 143.79 52.1655 144.152 52.0905C144.513 52.0133 144.853 51.9743 145.174 51.9743C145.887 51.9743 146.423 52.1173 146.785 52.4025C147.149 52.6881 147.332 53.1368 147.332 53.7485V57.2174H146.481ZM144.708 56.4722C145.14 56.4722 145.487 56.3623 145.746 56.1416C146.01 55.9182 146.141 55.6062 146.141 55.2057V54.7589L145.422 54.7866C144.862 54.8052 144.453 54.8924 144.197 55.0477C143.944 55.1998 143.817 55.4341 143.817 55.7506C143.817 55.9804 143.891 56.1589 144.04 56.286C144.189 56.4104 144.411 56.4722 144.708 56.4722ZM153.854 53.3852C153.854 53.9937 153.467 54.3615 152.694 54.4887V54.5259C153.126 54.5727 153.457 54.6985 153.687 54.9033C153.916 55.1081 154.031 55.3733 154.031 55.6993C154.031 56.1866 153.829 56.5626 153.423 56.8264C153.022 57.0871 152.436 57.2174 151.666 57.2174H148.992V52.0674H151.656C153.121 52.0674 153.854 52.5065 153.854 53.3852ZM152.811 55.6344C152.811 55.386 152.706 55.2107 152.497 55.1081C152.287 55.0027 151.973 54.9496 151.555 54.9496H150.182V56.4073H151.585C152.402 56.4073 152.811 56.1493 152.811 55.6344ZM152.664 53.4783C152.664 53.2735 152.576 53.1259 152.4 53.036C152.228 52.9429 151.97 52.8961 151.626 52.8961H150.182V54.1349H151.448C151.847 54.1349 152.149 54.0881 152.355 53.9951C152.561 53.8988 152.664 53.7267 152.664 53.4783ZM159.864 57.2174H158.664V52.9243H157.12C157.025 54.0291 156.897 54.8924 156.735 55.5131C156.576 56.1339 156.367 56.5871 156.107 56.8727C155.85 57.1584 155.517 57.3014 155.105 57.3014C154.844 57.3014 154.627 57.2669 154.451 57.1988V56.3419C154.576 56.3855 154.701 56.4073 154.826 56.4073C155.17 56.4073 155.44 56.0517 155.636 55.341C155.836 54.6267 155.991 53.5359 156.102 52.0674H159.864V57.2174ZM164.017 57.3105C163.146 57.3105 162.464 57.0775 161.971 56.6121C161.482 56.1434 161.237 55.4991 161.237 54.6798C161.237 53.8384 161.465 53.1772 161.92 52.6959C162.376 52.215 163.002 51.9743 163.799 51.9743C164.539 51.9743 165.122 52.1809 165.551 52.5937C165.98 53.0065 166.194 53.5745 166.194 54.2979V54.8892H162.462C162.479 55.3892 162.626 55.7738 162.903 56.044C163.179 56.311 163.57 56.4445 164.072 56.4445C164.403 56.4445 164.71 56.4163 164.994 56.3605C165.281 56.3015 165.588 56.2052 165.916 56.0721V56.9613C165.626 57.0884 165.332 57.1788 165.035 57.2315C164.738 57.2841 164.398 57.3105 164.017 57.3105ZM163.799 52.803C163.421 52.803 163.117 52.9134 162.888 53.1336C162.661 53.3543 162.527 53.6754 162.483 54.0977H165.024C165.018 53.6722 164.906 53.3511 164.69 53.1336C164.474 52.9134 164.177 52.803 163.799 52.803ZM168.736 52.0674V54.1349H171.375V52.0674H172.565V57.2174H171.375V54.9964H168.736V57.2174H167.547V52.0674H168.736ZM175.411 52.0674V54.7075C175.411 55.015 175.383 55.4668 175.33 56.0626L178.14 52.0674H179.593V57.2174H178.449V54.624C178.449 54.4809 178.457 54.2498 178.474 53.9301C178.495 53.6104 178.511 53.3775 178.525 53.2317L175.725 57.2174H174.271V52.0674H175.411ZM181.862 57.2174H180.53L182.09 55.1081C181.712 55.0086 181.415 54.832 181.198 54.5772C180.983 54.3197 180.874 54.0014 180.874 53.6227C180.874 53.1354 181.064 52.7549 181.441 52.482C181.82 52.2054 182.336 52.0674 182.991 52.0674H185.543V57.2174H184.348V55.2339H183.219L181.862 57.2174ZM182.034 53.6318C182.034 53.8961 182.142 54.0945 182.358 54.228C182.578 54.3583 182.871 54.4237 183.239 54.4237H184.348V52.8961H183.052C182.728 52.8961 182.476 52.9601 182.297 53.0873C182.122 53.2144 182.034 53.3961 182.034 53.6318ZM188.491 54.5868L186.612 52.0674H187.969L189.245 53.8693L190.531 52.0674H191.878L189.994 54.5868L191.974 57.2174H190.627L189.245 55.2897L187.867 57.2174H186.521L188.491 54.5868Z" fill="#212D55"/>
<defs>
<linearGradient id="paint0_linear_1_353" x1="75.9272" y1="25.5436" x2="33.1647" y2="72.0482" gradientUnits="userSpaceOnUse">
<stop stop-color="#212D55"/>
<stop offset="0.491587" stop-color="#212D55" stop-opacity="0.38"/>
<stop offset="1" stop-color="#212D55"/>
</linearGradient>
</defs>
</svg>
