<svg width="153" height="82" viewBox="0 0 153 82" fill="none" xmlns="http://www.w3.org/2000/svg">
<path d="M77.7854 39.7212L43.1564 4.84395C42.4552 4.13771 41.3183 4.13771 40.6171 4.84395L5.988 39.7212C5.28678 40.4274 5.28678 41.5725 5.988 42.2787L40.6171 77.156C41.3183 77.8622 42.4552 77.8622 43.1564 77.156L77.7854 42.2787C78.4867 41.5725 78.4867 40.4274 77.7854 39.7212Z" fill="url(#paint0_linear_1_1861)"/>
<path d="M54.9302 64.5865C50.5782 66.8649 51.5552 66.7769 46.2347 67.2302C40.9139 67.6831 35.5608 66.7675 30.7805 64.5865C26.0002 62.4055 21.9837 59.0463 19.1854 54.8891C16.3872 50.7319 14.9189 45.9425 14.9466 41.0626C14.9743 36.1828 16.4969 31.4075 19.3422 27.277C22.1875 23.1464 26.2419 19.8254 31.0467 17.6899C35.8515 15.5543 41.2148 14.6893 46.5299 15.1928C51.8451 15.6963 53.2019 16.0481 57.4243 19.0388L54.9302 27.8296C52.1977 25.8943 48.9269 24.696 45.4876 24.3702C42.0483 24.0444 38.5775 24.6042 35.4684 25.9861C32.3592 27.368 29.7357 29.5169 27.8945 32.1898C26.0533 34.8627 25.068 37.9528 25.0501 41.1105C25.0322 44.2681 25.9823 47.3673 27.7931 50.0575C29.6038 52.7477 32.2029 54.9212 35.2962 56.3326C38.3894 57.7437 41.8534 58.3362 45.2963 58.0431C48.7395 57.7499 52.0235 56.5825 54.7778 54.6734L54.9302 64.5865Z" fill="#242A3D"/>
<path d="M75.4909 16.7449C74.6394 16.7449 73.9802 17.0683 73.5129 17.7151C73.046 18.357 72.8124 19.2537 72.8124 20.4052C72.8124 22.8014 73.7052 23.9995 75.4909 23.9995C76.2398 23.9995 77.1472 23.8108 78.2126 23.4335V25.3445C77.3371 25.712 76.3593 25.8958 75.2789 25.8958C73.7269 25.8958 72.5398 25.4229 71.7178 24.4772C70.8954 23.5266 70.4844 22.1644 70.4844 20.3905C70.4844 19.2733 70.6861 18.2957 71.0901 17.4578C71.494 16.615 72.073 15.9706 72.827 15.5247C73.5861 15.0739 74.4738 14.8485 75.4909 14.8485C76.5269 14.8485 77.568 15.1008 78.6142 15.6056L77.8842 17.4578C77.4854 17.2667 77.0842 17.1001 76.6803 16.958C76.2764 16.8159 75.8799 16.7449 75.4909 16.7449ZM87.065 17.5313V19.2145H84.394V25.7488H82.1682V19.2145H79.4897V17.5313H87.065ZM93.0713 25.8958C92.1128 25.8958 91.3612 25.5455 90.8161 24.8447H90.6993C90.7771 25.5307 90.8161 25.9277 90.8161 26.0354V29.3651H88.5903V17.5313H90.4003L90.7142 18.5971H90.8161C91.3368 17.7837 92.1081 17.377 93.1296 17.377C94.0928 17.377 94.8472 17.7518 95.3919 18.5016C95.9371 19.2513 96.2092 20.2925 96.2092 21.6254C96.2092 22.5025 96.0802 23.2644 95.8226 23.9113C95.5697 24.5581 95.2071 25.0505 94.7351 25.3886C94.2631 25.7267 93.7085 25.8958 93.0713 25.8958ZM92.4145 19.1704C91.8647 19.1704 91.4635 19.3419 91.2102 19.6849C90.9573 20.023 90.8259 20.5841 90.8161 21.3681V21.6107C90.8161 22.4927 90.9451 23.1248 91.2031 23.507C91.4658 23.8892 91.8792 24.0803 92.4436 24.0803C93.4411 24.0803 93.9398 23.2522 93.9398 21.596C93.9398 20.7875 93.8155 20.1823 93.5673 19.7805C93.3243 19.3738 92.94 19.1704 92.4145 19.1704ZM99.8218 21.6254C99.8218 22.4388 99.9532 23.0537 100.216 23.4702C100.483 23.8868 100.916 24.095 101.515 24.095C102.109 24.095 102.534 23.8892 102.792 23.4776C103.055 23.0611 103.186 22.4437 103.186 21.6254C103.186 20.8119 103.055 20.2019 102.792 19.7952C102.529 19.3885 102.099 19.1851 101.5 19.1851C100.907 19.1851 100.479 19.3885 100.216 19.7952C99.9532 20.197 99.8218 20.8071 99.8218 21.6254ZM105.463 21.6254C105.463 22.9631 105.113 24.0093 104.412 24.7639C103.712 25.5185 102.736 25.8958 101.486 25.8958C100.702 25.8958 100.011 25.7243 99.4132 25.3813C98.8146 25.0334 98.3548 24.536 98.0338 23.8892C97.7129 23.2424 97.552 22.4878 97.552 21.6254C97.552 20.2827 97.9001 19.239 98.5959 18.4942C99.2916 17.7494 100.269 17.377 101.53 17.377C102.313 17.377 103.004 17.5485 103.602 17.8915C104.201 18.2345 104.66 18.727 104.981 19.3689C105.302 20.0108 105.463 20.7629 105.463 21.6254ZM109.455 17.5313V20.7801C109.455 21.1231 109.399 21.961 109.287 23.2938L113.053 17.5313H115.731V25.7488H113.578V22.4706C113.578 21.8875 113.627 21.0643 113.724 20.001L109.973 25.7488H107.302V17.5313H109.455ZM124.824 17.5313V19.2145H122.153V25.7488H119.927V19.2145H117.249V17.5313H124.824ZM129.728 18.972C129.256 18.972 128.887 19.1238 128.619 19.4277C128.351 19.7266 128.198 20.1529 128.159 20.7066H131.283C131.273 20.1529 131.129 19.7266 130.852 19.4277C130.575 19.1238 130.2 18.972 129.728 18.972ZM130.042 25.8958C128.729 25.8958 127.702 25.5307 126.963 24.8006C126.223 24.0705 125.853 23.0366 125.853 21.6989C125.853 20.322 126.194 19.2586 126.875 18.5089C127.561 17.7543 128.507 17.377 129.714 17.377C130.867 17.377 131.765 17.7077 132.407 18.3692C133.049 19.0307 133.37 19.9446 133.37 21.1109V22.1987H128.108C128.133 22.8357 128.32 23.3331 128.67 23.6908C129.02 24.0485 129.512 24.2273 130.145 24.2273C130.636 24.2273 131.1 24.1759 131.538 24.073C131.976 23.9701 132.434 23.8059 132.91 23.5805V25.3152C132.521 25.5112 132.105 25.6557 131.662 25.7488C131.219 25.8468 130.679 25.8958 130.042 25.8958ZM142.485 25.7488H140.259V19.2145H138.209C138.053 21.0521 137.863 22.4241 137.639 23.3306C137.415 24.2322 137.116 24.8864 136.742 25.2931C136.372 25.6949 135.885 25.8958 135.282 25.8958C134.766 25.8958 134.343 25.8174 134.012 25.6606V23.8672C134.251 23.9652 134.489 24.0142 134.727 24.0142C135.005 24.0142 135.236 23.8132 135.421 23.4115C135.61 23.0097 135.778 22.3408 135.924 21.4049C136.075 20.464 136.204 19.1728 136.311 17.5313H142.485V25.7488ZM147.054 20.7066H148.623C149.878 20.7066 150.807 20.9075 151.41 21.3093C152.014 21.7111 152.315 22.3187 152.315 23.1321C152.315 24.8766 151.113 25.7488 148.71 25.7488H144.828V17.5313H147.054V20.7066ZM150.09 23.1616C150.09 22.843 149.963 22.6127 149.71 22.4706C149.457 22.3285 149.08 22.2575 148.579 22.2575H147.054V24.1979H148.608C149.596 24.1979 150.09 23.8525 150.09 23.1616Z" fill="#D7D7D7"/>
<defs>
<linearGradient id="paint0_linear_1_1861" x1="60.471" y1="22.2827" x2="23.0372" y2="59.4501" gradientUnits="userSpaceOnUse">
<stop stop-color="#D0D0D0"/>
<stop offset="0.491587" stop-color="white"/>
<stop offset="1" stop-color="#C4C4C4"/>
</linearGradient>
</defs>
</svg>
